<svg xmlns="http://www.w3.org/2000/svg" version="1.1" xmlns:xlink="http://www.w3.org/1999/xlink" xmlns:svgjs="http://svgjs.dev/svgjs" width="1850" height="630" preserveAspectRatio="none" viewBox="0 0 1850 630"><g mask="url(&quot;#SvgjsMask1028&quot;)" fill="none"><g><path d="M462.5 137.5L12.5 137.5" stroke-width="4.17" stroke="rgba(88, 164, 176, 1)"></path><path d="M458.33 137.5 a4.17 4.17 0 1 0 8.34 0 a4.17 4.17 0 1 0 -8.34 0zM8.33 137.5 a4.17 4.17 0 1 0 8.34 0 a4.17 4.17 0 1 0 -8.34 0z" fill="rgba(88, 164, 176, 1)"></path><path d="M1412.5 262.5L1412.5 537.5L1512.5 637.5L1612.5 637.5" stroke-width="4.17" stroke="rgba(88, 164, 176, 1)"></path><path d="M1408.33 262.5 a4.17 4.17 0 1 0 8.34 0 a4.17 4.17 0 1 0 -8.34 0zM1608.33 637.5 a4.17 4.17 0 1 0 8.34 0 a4.17 4.17 0 1 0 -8.34 0z" fill="rgba(88, 164, 176, 1)"></path><path d="M1087.5 562.5L1087.5 637.5" stroke-width="4.17" stroke="rgba(88, 164, 176, 1)"></path><path d="M1083.33 562.5 a4.17 4.17 0 1 0 8.34 0 a4.17 4.17 0 1 0 -8.34 0zM1083.33 637.5 a4.17 4.17 0 1 0 8.34 0 a4.17 4.17 0 1 0 -8.34 0z" fill="rgba(88, 164, 176, 1)"></path><path d="M487.5 112.5L487.5 187.5L362.5 312.5L87.5 312.5" stroke-width="4.17" stroke="rgba(88, 164, 176, 1)"></path><path d="M483.33 112.5 a4.17 4.17 0 1 0 8.34 0 a4.17 4.17 0 1 0 -8.34 0zM83.33 312.5 a4.17 4.17 0 1 0 8.34 0 a4.17 4.17 0 1 0 -8.34 0z" fill="rgba(88, 164, 176, 1)"></path><path d="M1362.5 112.5L1362.5 162.5L1487.5 287.5L1787.5 287.5" stroke-width="4.17" stroke="rgba(88, 164, 176, 1)"></path><path d="M1358.33 112.5 a4.17 4.17 0 1 0 8.34 0 a4.17 4.17 0 1 0 -8.34 0zM1783.33 287.5 a4.17 4.17 0 1 0 8.34 0 a4.17 4.17 0 1 0 -8.34 0z" fill="rgba(88, 164, 176, 1)"></path><path d="M1187.5 287.5L1312.5 162.5L1337.5 162.5L1412.5 237.5" stroke-width="4.17" stroke="rgba(88, 164, 176, 1)"></path><path d="M1183.33 287.5 a4.17 4.17 0 1 0 8.34 0 a4.17 4.17 0 1 0 -8.34 0zM1408.33 237.5 a4.17 4.17 0 1 0 8.34 0 a4.17 4.17 0 1 0 -8.34 0z" fill="rgba(88, 164, 176, 1)"></path><path d="M1162.5 212.5L1162.5 162.5L1012.5 12.5L737.5 12.5" stroke-width="4.17" stroke="rgba(88, 164, 176, 1)"></path><path d="M1158.33 212.5 a4.17 4.17 0 1 0 8.34 0 a4.17 4.17 0 1 0 -8.34 0zM733.33 12.5 a4.17 4.17 0 1 0 8.34 0 a4.17 4.17 0 1 0 -8.34 0z" fill="rgba(88, 164, 176, 1)"></path><path d="M1387.5 112.5L1662.5 112.5L1737.5 37.5L1737.5 12.5" stroke-width="4.17" stroke="rgba(88, 164, 176, 1)"></path><path d="M1383.33 112.5 a4.17 4.17 0 1 0 8.34 0 a4.17 4.17 0 1 0 -8.34 0zM1733.33 12.5 a4.17 4.17 0 1 0 8.34 0 a4.17 4.17 0 1 0 -8.34 0z" fill="rgba(88, 164, 176, 1)"></path><path d="M387.5 112.5L412.5 112.5L512.5 12.5L637.5 12.5L837.5 212.5L862.5 212.5" stroke-width="4.17" stroke="rgba(88, 164, 176, 1)"></path><path d="M383.33 112.5 a4.17 4.17 0 1 0 8.34 0 a4.17 4.17 0 1 0 -8.34 0zM858.33 212.5 a4.17 4.17 0 1 0 8.34 0 a4.17 4.17 0 1 0 -8.34 0z" fill="rgba(88, 164, 176, 1)"></path><path d="M62.5 362.5L87.5 362.5L112.5 337.5L537.5 337.5" stroke-width="4.17" stroke="rgba(88, 164, 176, 1)"></path><path d="M58.33 362.5 a4.17 4.17 0 1 0 8.34 0 a4.17 4.17 0 1 0 -8.34 0zM533.33 337.5 a4.17 4.17 0 1 0 8.34 0 a4.17 4.17 0 1 0 -8.34 0z" fill="rgba(88, 164, 176, 1)"></path><path d="M1462.5 187.5L1412.5 187.5L1387.5 162.5L1387.5 137.5" stroke-width="4.17" stroke="rgba(88, 164, 176, 1)"></path><path d="M1458.33 187.5 a4.17 4.17 0 1 0 8.34 0 a4.17 4.17 0 1 0 -8.34 0zM1383.33 137.5 a4.17 4.17 0 1 0 8.34 0 a4.17 4.17 0 1 0 -8.34 0z" fill="rgba(88, 164, 176, 1)"></path><path d="M1637.5 437.5L1737.5 437.5L1837.5 337.5L1837.5 212.5L1712.5 87.5" stroke-width="4.17" stroke="rgba(88, 164, 176, 1)"></path><path d="M1633.33 437.5 a4.17 4.17 0 1 0 8.34 0 a4.17 4.17 0 1 0 -8.34 0zM1708.33 87.5 a4.17 4.17 0 1 0 8.34 0 a4.17 4.17 0 1 0 -8.34 0z" fill="rgba(88, 164, 176, 1)"></path><path d="M112.5 637.5L387.5 362.5L537.5 362.5L587.5 312.5" stroke-width="4.17" stroke="rgba(88, 164, 176, 1)"></path><path d="M108.33 637.5 a4.17 4.17 0 1 0 8.34 0 a4.17 4.17 0 1 0 -8.34 0zM583.33 312.5 a4.17 4.17 0 1 0 8.34 0 a4.17 4.17 0 1 0 -8.34 0z" fill="rgba(88, 164, 176, 1)"></path><path d="M712.5 62.5L662.5 12.5" stroke-width="4.17" stroke="rgba(88, 164, 176, 1)"></path><path d="M708.33 62.5 a4.17 4.17 0 1 0 8.34 0 a4.17 4.17 0 1 0 -8.34 0zM658.33 12.5 a4.17 4.17 0 1 0 8.34 0 a4.17 4.17 0 1 0 -8.34 0z" fill="rgba(88, 164, 176, 1)"></path><path d="M1037.5 612.5L1037.5 287.5L1137.5 187.5L1137.5 162.5L1112.5 137.5" stroke-width="4.17" stroke="rgba(88, 164, 176, 1)"></path><path d="M1033.33 612.5 a4.17 4.17 0 1 0 8.34 0 a4.17 4.17 0 1 0 -8.34 0zM1108.33 137.5 a4.17 4.17 0 1 0 8.34 0 a4.17 4.17 0 1 0 -8.34 0z" fill="rgba(88, 164, 176, 1)"></path><path d="M1787.5 112.5L1787.5 12.5" stroke-width="4.17" stroke="rgba(88, 164, 176, 1)"></path><path d="M1783.33 112.5 a4.17 4.17 0 1 0 8.34 0 a4.17 4.17 0 1 0 -8.34 0zM1783.33 12.5 a4.17 4.17 0 1 0 8.34 0 a4.17 4.17 0 1 0 -8.34 0z" fill="rgba(88, 164, 176, 1)"></path><path d="M962.5 562.5L837.5 562.5L812.5 587.5L812.5 637.5" stroke-width="4.17" stroke="rgba(88, 164, 176, 1)"></path><path d="M958.33 562.5 a4.17 4.17 0 1 0 8.34 0 a4.17 4.17 0 1 0 -8.34 0zM808.33 637.5 a4.17 4.17 0 1 0 8.34 0 a4.17 4.17 0 1 0 -8.34 0z" fill="rgba(88, 164, 176, 1)"></path><path d="M1437.5 287.5L1612.5 462.5L1612.5 512.5L1737.5 637.5L1762.5 637.5" stroke-width="4.17" stroke="rgba(88, 164, 176, 1)"></path><path d="M1433.33 287.5 a4.17 4.17 0 1 0 8.34 0 a4.17 4.17 0 1 0 -8.34 0zM1758.33 637.5 a4.17 4.17 0 1 0 8.34 0 a4.17 4.17 0 1 0 -8.34 0z" fill="rgba(88, 164, 176, 1)"></path><path d="M512.5 462.5L512.5 537.5L612.5 637.5L787.5 637.5" stroke-width="4.17" stroke="rgba(88, 164, 176, 1)"></path><path d="M508.33 462.5 a4.17 4.17 0 1 0 8.34 0 a4.17 4.17 0 1 0 -8.34 0zM783.33 637.5 a4.17 4.17 0 1 0 8.34 0 a4.17 4.17 0 1 0 -8.34 0z" fill="rgba(88, 164, 176, 1)"></path><path d="M487.5 537.5L487.5 387.5" stroke-width="4.17" stroke="rgba(88, 164, 176, 1)"></path><path d="M483.33 537.5 a4.17 4.17 0 1 0 8.34 0 a4.17 4.17 0 1 0 -8.34 0zM483.33 387.5 a4.17 4.17 0 1 0 8.34 0 a4.17 4.17 0 1 0 -8.34 0z" fill="rgba(88, 164, 176, 1)"></path><path d="M1512.5 537.5L1537.5 512.5L1587.5 512.5L1712.5 637.5" stroke-width="4.17" stroke="rgba(88, 164, 176, 1)"></path><path d="M1508.33 537.5 a4.17 4.17 0 1 0 8.34 0 a4.17 4.17 0 1 0 -8.34 0zM1708.33 637.5 a4.17 4.17 0 1 0 8.34 0 a4.17 4.17 0 1 0 -8.34 0z" fill="rgba(88, 164, 176, 1)"></path><path d="M837.5 412.5L937.5 512.5L937.5 537.5" stroke-width="4.17" stroke="rgba(88, 164, 176, 1)"></path><path d="M833.33 412.5 a4.17 4.17 0 1 0 8.34 0 a4.17 4.17 0 1 0 -8.34 0zM933.33 537.5 a4.17 4.17 0 1 0 8.34 0 a4.17 4.17 0 1 0 -8.34 0z" fill="rgba(88, 164, 176, 1)"></path><path d="M12.5 162.5L112.5 262.5L387.5 262.5L462.5 187.5L462.5 162.5" stroke-width="4.17" stroke="rgba(88, 164, 176, 1)"></path><path d="M8.33 162.5 a4.17 4.17 0 1 0 8.34 0 a4.17 4.17 0 1 0 -8.34 0zM458.33 162.5 a4.17 4.17 0 1 0 8.34 0 a4.17 4.17 0 1 0 -8.34 0z" fill="rgba(88, 164, 176, 1)"></path><path d="M1237.5 262.5L1162.5 337.5L1162.5 387.5L1087.5 462.5L1062.5 462.5" stroke-width="4.17" stroke="rgba(88, 164, 176, 1)"></path><path d="M1233.33 262.5 a4.17 4.17 0 1 0 8.34 0 a4.17 4.17 0 1 0 -8.34 0zM1058.33 462.5 a4.17 4.17 0 1 0 8.34 0 a4.17 4.17 0 1 0 -8.34 0z" fill="rgba(88, 164, 176, 1)"></path><path d="M1087.5 387.5L1062.5 412.5L1062.5 437.5" stroke-width="4.17" stroke="rgba(88, 164, 176, 1)"></path><path d="M1083.33 387.5 a4.17 4.17 0 1 0 8.34 0 a4.17 4.17 0 1 0 -8.34 0zM1058.33 437.5 a4.17 4.17 0 1 0 8.34 0 a4.17 4.17 0 1 0 -8.34 0z" fill="rgba(88, 164, 176, 1)"></path><path d="M987.5 287.5L1012.5 312.5L1012.5 412.5L937.5 487.5" stroke-width="4.17" stroke="rgba(88, 164, 176, 1)"></path><path d="M983.33 287.5 a4.17 4.17 0 1 0 8.34 0 a4.17 4.17 0 1 0 -8.34 0zM933.33 487.5 a4.17 4.17 0 1 0 8.34 0 a4.17 4.17 0 1 0 -8.34 0z" fill="rgba(88, 164, 176, 1)"></path><path d="M1162.5 612.5L1062.5 512.5L1062.5 487.5" stroke-width="4.17" stroke="rgba(88, 164, 176, 1)"></path><path d="M1158.33 612.5 a4.17 4.17 0 1 0 8.34 0 a4.17 4.17 0 1 0 -8.34 0zM1058.33 487.5 a4.17 4.17 0 1 0 8.34 0 a4.17 4.17 0 1 0 -8.34 0z" fill="rgba(88, 164, 176, 1)"></path><path d="M1762.5 562.5L1762.5 612.5" stroke-width="4.17" stroke="rgba(88, 164, 176, 1)"></path><path d="M1758.33 562.5 a4.17 4.17 0 1 0 8.34 0 a4.17 4.17 0 1 0 -8.34 0zM1758.33 612.5 a4.17 4.17 0 1 0 8.34 0 a4.17 4.17 0 1 0 -8.34 0z" fill="rgba(88, 164, 176, 1)"></path><path d="M637.5 87.5L637.5 37.5" stroke-width="4.17" stroke="rgba(88, 164, 176, 1)"></path><path d="M633.33 87.5 a4.17 4.17 0 1 0 8.34 0 a4.17 4.17 0 1 0 -8.34 0zM633.33 37.5 a4.17 4.17 0 1 0 8.34 0 a4.17 4.17 0 1 0 -8.34 0z" fill="rgba(88, 164, 176, 1)"></path><path d="M87.5 262.5L12.5 187.5" stroke-width="4.17" stroke="rgba(88, 164, 176, 1)"></path><path d="M83.33 262.5 a4.17 4.17 0 1 0 8.34 0 a4.17 4.17 0 1 0 -8.34 0zM8.33 187.5 a4.17 4.17 0 1 0 8.34 0 a4.17 4.17 0 1 0 -8.34 0z" fill="rgba(88, 164, 176, 1)"></path><path d="M262.5 162.5L337.5 237.5L387.5 237.5L437.5 187.5L437.5 162.5" stroke-width="4.17" stroke="rgba(88, 164, 176, 1)"></path><path d="M258.33 162.5 a4.17 4.17 0 1 0 8.34 0 a4.17 4.17 0 1 0 -8.34 0zM433.33 162.5 a4.17 4.17 0 1 0 8.34 0 a4.17 4.17 0 1 0 -8.34 0z" fill="rgba(88, 164, 176, 1)"></path><path d="M762.5 537.5L762.5 612.5" stroke-width="4.17" stroke="rgba(88, 164, 176, 1)"></path><path d="M758.33 537.5 a4.17 4.17 0 1 0 8.34 0 a4.17 4.17 0 1 0 -8.34 0zM758.33 612.5 a4.17 4.17 0 1 0 8.34 0 a4.17 4.17 0 1 0 -8.34 0z" fill="rgba(88, 164, 176, 1)"></path><path d="M1662.5 62.5L1662.5 12.5" stroke-width="4.17" stroke="rgba(88, 164, 176, 1)"></path><path d="M1658.33 62.5 a4.17 4.17 0 1 0 8.34 0 a4.17 4.17 0 1 0 -8.34 0zM1658.33 12.5 a4.17 4.17 0 1 0 8.34 0 a4.17 4.17 0 1 0 -8.34 0z" fill="rgba(88, 164, 176, 1)"></path><path d="M262.5 12.5L212.5 12.5L112.5 112.5L37.5 112.5L12.5 87.5L12.5 12.5" stroke-width="4.17" stroke="rgba(88, 164, 176, 1)"></path><path d="M258.33 12.5 a4.17 4.17 0 1 0 8.34 0 a4.17 4.17 0 1 0 -8.34 0zM8.33 12.5 a4.17 4.17 0 1 0 8.34 0 a4.17 4.17 0 1 0 -8.34 0z" fill="rgba(88, 164, 176, 1)"></path><path d="M337.5 187.5L362.5 212.5L387.5 212.5L412.5 187.5L412.5 162.5" stroke-width="4.17" stroke="rgba(88, 164, 176, 1)"></path><path d="M333.33 187.5 a4.17 4.17 0 1 0 8.34 0 a4.17 4.17 0 1 0 -8.34 0zM408.33 162.5 a4.17 4.17 0 1 0 8.34 0 a4.17 4.17 0 1 0 -8.34 0z" fill="rgba(88, 164, 176, 1)"></path><path d="M812.5 512.5L812.5 562.5L787.5 587.5L787.5 612.5" stroke-width="4.17" stroke="rgba(88, 164, 176, 1)"></path><path d="M808.33 512.5 a4.17 4.17 0 1 0 8.34 0 a4.17 4.17 0 1 0 -8.34 0zM783.33 612.5 a4.17 4.17 0 1 0 8.34 0 a4.17 4.17 0 1 0 -8.34 0z" fill="rgba(88, 164, 176, 1)"></path><path d="M962.5 362.5L937.5 387.5L937.5 462.5" stroke-width="4.17" stroke="rgba(88, 164, 176, 1)"></path><path d="M958.33 362.5 a4.17 4.17 0 1 0 8.34 0 a4.17 4.17 0 1 0 -8.34 0zM933.33 462.5 a4.17 4.17 0 1 0 8.34 0 a4.17 4.17 0 1 0 -8.34 0z" fill="rgba(88, 164, 176, 1)"></path><path d="M1087.5 412.5L1137.5 362.5L1137.5 337.5L1087.5 287.5L1087.5 262.5L1137.5 212.5" stroke-width="4.17" stroke="rgba(88, 164, 176, 1)"></path><path d="M1083.33 412.5 a4.17 4.17 0 1 0 8.34 0 a4.17 4.17 0 1 0 -8.34 0zM1133.33 212.5 a4.17 4.17 0 1 0 8.34 0 a4.17 4.17 0 1 0 -8.34 0z" fill="rgba(88, 164, 176, 1)"></path><path d="M1087.5 62.5L1237.5 212.5" stroke-width="4.17" stroke="rgba(88, 164, 176, 1)"></path><path d="M1083.33 62.5 a4.17 4.17 0 1 0 8.34 0 a4.17 4.17 0 1 0 -8.34 0zM1233.33 212.5 a4.17 4.17 0 1 0 8.34 0 a4.17 4.17 0 1 0 -8.34 0z" fill="rgba(88, 164, 176, 1)"></path><path d="M1237.5 362.5L1187.5 362.5" stroke-width="4.17" stroke="rgba(88, 164, 176, 1)"></path><path d="M1233.33 362.5 a4.17 4.17 0 1 0 8.34 0 a4.17 4.17 0 1 0 -8.34 0zM1183.33 362.5 a4.17 4.17 0 1 0 8.34 0 a4.17 4.17 0 1 0 -8.34 0z" fill="rgba(88, 164, 176, 1)"></path><path d="M112.5 162.5L37.5 162.5" stroke-width="4.17" stroke="rgba(88, 164, 176, 1)"></path><path d="M108.33 162.5 a4.17 4.17 0 1 0 8.34 0 a4.17 4.17 0 1 0 -8.34 0zM33.33 162.5 a4.17 4.17 0 1 0 8.34 0 a4.17 4.17 0 1 0 -8.34 0z" fill="rgba(88, 164, 176, 1)"></path><path d="M1212.5 212.5L1212.5 237.5L1137.5 312.5" stroke-width="4.17" stroke="rgba(88, 164, 176, 1)"></path><path d="M1208.33 212.5 a4.17 4.17 0 1 0 8.34 0 a4.17 4.17 0 1 0 -8.34 0zM1133.33 312.5 a4.17 4.17 0 1 0 8.34 0 a4.17 4.17 0 1 0 -8.34 0z" fill="rgba(88, 164, 176, 1)"></path><path d="M712.5 512.5L562.5 512.5L537.5 487.5L537.5 387.5L687.5 237.5L687.5 187.5" stroke-width="4.17" stroke="rgba(88, 164, 176, 1)"></path><path d="M708.33 512.5 a4.17 4.17 0 1 0 8.34 0 a4.17 4.17 0 1 0 -8.34 0zM683.33 187.5 a4.17 4.17 0 1 0 8.34 0 a4.17 4.17 0 1 0 -8.34 0z" fill="rgba(88, 164, 176, 1)"></path><path d="M837.5 62.5L862.5 37.5L1012.5 37.5L1087.5 112.5L1087.5 212.5L1012.5 287.5" stroke-width="4.17" stroke="rgba(88, 164, 176, 1)"></path><path d="M833.33 62.5 a4.17 4.17 0 1 0 8.34 0 a4.17 4.17 0 1 0 -8.34 0zM1008.33 287.5 a4.17 4.17 0 1 0 8.34 0 a4.17 4.17 0 1 0 -8.34 0z" fill="rgba(88, 164, 176, 1)"></path><path d="M837.5 187.5L862.5 187.5L987.5 312.5L987.5 412.5L962.5 437.5" stroke-width="4.17" stroke="rgba(88, 164, 176, 1)"></path><path d="M833.33 187.5 a4.17 4.17 0 1 0 8.34 0 a4.17 4.17 0 1 0 -8.34 0zM958.33 437.5 a4.17 4.17 0 1 0 8.34 0 a4.17 4.17 0 1 0 -8.34 0z" fill="rgba(88, 164, 176, 1)"></path><path d="M1087.5 487.5L1187.5 387.5L1287.5 387.5L1387.5 487.5L1387.5 587.5L1437.5 637.5L1462.5 637.5" stroke-width="4.17" stroke="rgba(88, 164, 176, 1)"></path><path d="M1083.33 487.5 a4.17 4.17 0 1 0 8.34 0 a4.17 4.17 0 1 0 -8.34 0zM1458.33 637.5 a4.17 4.17 0 1 0 8.34 0 a4.17 4.17 0 1 0 -8.34 0z" fill="rgba(88, 164, 176, 1)"></path><path d="M287.5 412.5L337.5 362.5L362.5 362.5" stroke-width="4.17" stroke="rgba(88, 164, 176, 1)"></path><path d="M283.33 412.5 a4.17 4.17 0 1 0 8.34 0 a4.17 4.17 0 1 0 -8.34 0zM358.33 362.5 a4.17 4.17 0 1 0 8.34 0 a4.17 4.17 0 1 0 -8.34 0z" fill="rgba(88, 164, 176, 1)"></path><path d="M12.5 562.5L87.5 637.5" stroke-width="4.17" stroke="rgba(88, 164, 176, 1)"></path><path d="M8.33 562.5 a4.17 4.17 0 1 0 8.34 0 a4.17 4.17 0 1 0 -8.34 0zM83.33 637.5 a4.17 4.17 0 1 0 8.34 0 a4.17 4.17 0 1 0 -8.34 0z" fill="rgba(88, 164, 176, 1)"></path><path d="M1587.5 87.5L1637.5 37.5L1637.5 12.5" stroke-width="4.17" stroke="rgba(88, 164, 176, 1)"></path><path d="M1583.33 87.5 a4.17 4.17 0 1 0 8.34 0 a4.17 4.17 0 1 0 -8.34 0zM1633.33 12.5 a4.17 4.17 0 1 0 8.34 0 a4.17 4.17 0 1 0 -8.34 0z" fill="rgba(88, 164, 176, 1)"></path><path d="M1837.5 562.5L1837.5 362.5" stroke-width="4.17" stroke="rgba(88, 164, 176, 1)"></path><path d="M1833.33 562.5 a4.17 4.17 0 1 0 8.34 0 a4.17 4.17 0 1 0 -8.34 0zM1833.33 362.5 a4.17 4.17 0 1 0 8.34 0 a4.17 4.17 0 1 0 -8.34 0z" fill="rgba(88, 164, 176, 1)"></path><path d="M987.5 187.5L937.5 137.5L937.5 62.5" stroke-width="4.17" stroke="rgba(88, 164, 176, 1)"></path><path d="M983.33 187.5 a4.17 4.17 0 1 0 8.34 0 a4.17 4.17 0 1 0 -8.34 0zM933.33 62.5 a4.17 4.17 0 1 0 8.34 0 a4.17 4.17 0 1 0 -8.34 0z" fill="rgba(88, 164, 176, 1)"></path><path d="M262.5 37.5L287.5 12.5L312.5 12.5L387.5 87.5L412.5 87.5L437.5 62.5L437.5 12.5" stroke-width="4.17" stroke="rgba(88, 164, 176, 1)"></path><path d="M258.33 37.5 a4.17 4.17 0 1 0 8.34 0 a4.17 4.17 0 1 0 -8.34 0zM433.33 12.5 a4.17 4.17 0 1 0 8.34 0 a4.17 4.17 0 1 0 -8.34 0z" fill="rgba(88, 164, 176, 1)"></path><path d="M387.5 487.5L237.5 637.5L137.5 637.5" stroke-width="4.17" stroke="rgba(88, 164, 176, 1)"></path><path d="M383.33 487.5 a4.17 4.17 0 1 0 8.34 0 a4.17 4.17 0 1 0 -8.34 0zM133.33 637.5 a4.17 4.17 0 1 0 8.34 0 a4.17 4.17 0 1 0 -8.34 0z" fill="rgba(88, 164, 176, 1)"></path><path d="M687.5 312.5L637.5 312.5L562.5 387.5L562.5 487.5" stroke-width="4.17" stroke="rgba(88, 164, 176, 1)"></path><path d="M683.33 312.5 a4.17 4.17 0 1 0 8.34 0 a4.17 4.17 0 1 0 -8.34 0zM558.33 487.5 a4.17 4.17 0 1 0 8.34 0 a4.17 4.17 0 1 0 -8.34 0z" fill="rgba(88, 164, 176, 1)"></path><path d="M1362.5 387.5L1362.5 437.5L1387.5 462.5" stroke-width="4.17" stroke="rgba(88, 164, 176, 1)"></path><path d="M1358.33 387.5 a4.17 4.17 0 1 0 8.34 0 a4.17 4.17 0 1 0 -8.34 0zM1383.33 462.5 a4.17 4.17 0 1 0 8.34 0 a4.17 4.17 0 1 0 -8.34 0z" fill="rgba(88, 164, 176, 1)"></path><path d="M1687.5 387.5L1687.5 312.5" stroke-width="4.17" stroke="rgba(88, 164, 176, 1)"></path><path d="M1683.33 387.5 a4.17 4.17 0 1 0 8.34 0 a4.17 4.17 0 1 0 -8.34 0zM1683.33 312.5 a4.17 4.17 0 1 0 8.34 0 a4.17 4.17 0 1 0 -8.34 0z" fill="rgba(88, 164, 176, 1)"></path><path d="M37.5 62.5L37.5 12.5" stroke-width="4.17" stroke="rgba(88, 164, 176, 1)"></path><path d="M33.33 62.5 a4.17 4.17 0 1 0 8.34 0 a4.17 4.17 0 1 0 -8.34 0zM33.33 12.5 a4.17 4.17 0 1 0 8.34 0 a4.17 4.17 0 1 0 -8.34 0z" fill="rgba(88, 164, 176, 1)"></path><path d="M1637.5 212.5L1687.5 262.5L1787.5 262.5L1812.5 237.5L1812.5 212.5L1712.5 112.5L1687.5 112.5L1612.5 187.5L1612.5 262.5" stroke-width="4.17" stroke="rgba(88, 164, 176, 1)"></path><path d="M1633.33 212.5 a4.17 4.17 0 1 0 8.34 0 a4.17 4.17 0 1 0 -8.34 0zM1608.33 262.5 a4.17 4.17 0 1 0 8.34 0 a4.17 4.17 0 1 0 -8.34 0z" fill="rgba(88, 164, 176, 1)"></path><path d="M1262.5 637.5L1262.5 412.5" stroke-width="4.17" stroke="rgba(88, 164, 176, 1)"></path><path d="M1258.33 637.5 a4.17 4.17 0 1 0 8.34 0 a4.17 4.17 0 1 0 -8.34 0zM1258.33 412.5 a4.17 4.17 0 1 0 8.34 0 a4.17 4.17 0 1 0 -8.34 0z" fill="rgba(88, 164, 176, 1)"></path><path d="M1487.5 362.5L1437.5 312.5" stroke-width="4.17" stroke="rgba(88, 164, 176, 1)"></path><path d="M1483.33 362.5 a4.17 4.17 0 1 0 8.34 0 a4.17 4.17 0 1 0 -8.34 0zM1433.33 312.5 a4.17 4.17 0 1 0 8.34 0 a4.17 4.17 0 1 0 -8.34 0z" fill="rgba(88, 164, 176, 1)"></path><path d="M237.5 62.5L187.5 62.5L137.5 112.5" stroke-width="4.17" stroke="rgba(88, 164, 176, 1)"></path><path d="M233.33 62.5 a4.17 4.17 0 1 0 8.34 0 a4.17 4.17 0 1 0 -8.34 0zM133.33 112.5 a4.17 4.17 0 1 0 8.34 0 a4.17 4.17 0 1 0 -8.34 0z" fill="rgba(88, 164, 176, 1)"></path><path d="M762.5 487.5L762.5 512.5L787.5 537.5L787.5 562.5" stroke-width="4.17" stroke="rgba(88, 164, 176, 1)"></path><path d="M758.33 487.5 a4.17 4.17 0 1 0 8.34 0 a4.17 4.17 0 1 0 -8.34 0zM783.33 562.5 a4.17 4.17 0 1 0 8.34 0 a4.17 4.17 0 1 0 -8.34 0z" fill="rgba(88, 164, 176, 1)"></path><path d="M437.5 587.5L387.5 537.5L387.5 512.5L462.5 437.5L462.5 387.5" stroke-width="4.17" stroke="rgba(88, 164, 176, 1)"></path><path d="M433.33 587.5 a4.17 4.17 0 1 0 8.34 0 a4.17 4.17 0 1 0 -8.34 0zM458.33 387.5 a4.17 4.17 0 1 0 8.34 0 a4.17 4.17 0 1 0 -8.34 0z" fill="rgba(88, 164, 176, 1)"></path><path d="M637.5 562.5L562.5 562.5L537.5 537.5L537.5 512.5" stroke-width="4.17" stroke="rgba(88, 164, 176, 1)"></path><path d="M633.33 562.5 a4.17 4.17 0 1 0 8.34 0 a4.17 4.17 0 1 0 -8.34 0zM533.33 512.5 a4.17 4.17 0 1 0 8.34 0 a4.17 4.17 0 1 0 -8.34 0z" fill="rgba(88, 164, 176, 1)"></path><path d="M587.5 487.5L737.5 487.5L937.5 287.5" stroke-width="4.17" stroke="rgba(88, 164, 176, 1)"></path><path d="M583.33 487.5 a4.17 4.17 0 1 0 8.34 0 a4.17 4.17 0 1 0 -8.34 0zM933.33 287.5 a4.17 4.17 0 1 0 8.34 0 a4.17 4.17 0 1 0 -8.34 0z" fill="rgba(88, 164, 176, 1)"></path><path d="M662.5 112.5L662.5 62.5" stroke-width="4.17" stroke="rgba(88, 164, 176, 1)"></path><path d="M658.33 112.5 a4.17 4.17 0 1 0 8.34 0 a4.17 4.17 0 1 0 -8.34 0zM658.33 62.5 a4.17 4.17 0 1 0 8.34 0 a4.17 4.17 0 1 0 -8.34 0z" fill="rgba(88, 164, 176, 1)"></path><path d="M1012.5 187.5L1012.5 212.5L1037.5 237.5" stroke-width="4.17" stroke="rgba(88, 164, 176, 1)"></path><path d="M1008.33 187.5 a4.17 4.17 0 1 0 8.34 0 a4.17 4.17 0 1 0 -8.34 0zM1033.33 237.5 a4.17 4.17 0 1 0 8.34 0 a4.17 4.17 0 1 0 -8.34 0z" fill="rgba(88, 164, 176, 1)"></path><path d="M1562.5 437.5L1562.5 487.5" stroke-width="4.17" stroke="rgba(88, 164, 176, 1)"></path><path d="M1558.33 437.5 a4.17 4.17 0 1 0 8.34 0 a4.17 4.17 0 1 0 -8.34 0zM1558.33 487.5 a4.17 4.17 0 1 0 8.34 0 a4.17 4.17 0 1 0 -8.34 0z" fill="rgba(88, 164, 176, 1)"></path><path d="M1012.5 112.5L987.5 137.5L962.5 137.5" stroke-width="4.17" stroke="rgba(88, 164, 176, 1)"></path><path d="M1008.33 112.5 a4.17 4.17 0 1 0 8.34 0 a4.17 4.17 0 1 0 -8.34 0zM958.33 137.5 a4.17 4.17 0 1 0 8.34 0 a4.17 4.17 0 1 0 -8.34 0z" fill="rgba(88, 164, 176, 1)"></path><path d="M937.5 162.5L912.5 137.5L912.5 62.5" stroke-width="4.17" stroke="rgba(88, 164, 176, 1)"></path><path d="M933.33 162.5 a4.17 4.17 0 1 0 8.34 0 a4.17 4.17 0 1 0 -8.34 0zM908.33 62.5 a4.17 4.17 0 1 0 8.34 0 a4.17 4.17 0 1 0 -8.34 0z" fill="rgba(88, 164, 176, 1)"></path><path d="M1137.5 537.5L1212.5 612.5L1212.5 637.5" stroke-width="4.17" stroke="rgba(88, 164, 176, 1)"></path><path d="M1133.33 537.5 a4.17 4.17 0 1 0 8.34 0 a4.17 4.17 0 1 0 -8.34 0zM1208.33 637.5 a4.17 4.17 0 1 0 8.34 0 a4.17 4.17 0 1 0 -8.34 0z" fill="rgba(88, 164, 176, 1)"></path><path d="M737.5 187.5L862.5 312.5L887.5 312.5L912.5 287.5L912.5 262.5L887.5 237.5L812.5 237.5L687.5 112.5L687.5 87.5" stroke-width="4.17" stroke="rgba(88, 164, 176, 1)"></path><path d="M733.33 187.5 a4.17 4.17 0 1 0 8.34 0 a4.17 4.17 0 1 0 -8.34 0zM683.33 87.5 a4.17 4.17 0 1 0 8.34 0 a4.17 4.17 0 1 0 -8.34 0z" fill="rgba(88, 164, 176, 1)"></path><path d="M1837.5 87.5L1812.5 62.5L1812.5 12.5" stroke-width="4.17" stroke="rgba(88, 164, 176, 1)"></path><path d="M1833.33 87.5 a4.17 4.17 0 1 0 8.34 0 a4.17 4.17 0 1 0 -8.34 0zM1808.33 12.5 a4.17 4.17 0 1 0 8.34 0 a4.17 4.17 0 1 0 -8.34 0z" fill="rgba(88, 164, 176, 1)"></path><path d="M887.5 362.5L937.5 362.5L962.5 337.5L962.5 312.5" stroke-width="4.17" stroke="rgba(88, 164, 176, 1)"></path><path d="M883.33 362.5 a4.17 4.17 0 1 0 8.34 0 a4.17 4.17 0 1 0 -8.34 0zM958.33 312.5 a4.17 4.17 0 1 0 8.34 0 a4.17 4.17 0 1 0 -8.34 0z" fill="rgba(88, 164, 176, 1)"></path><path d="M1362.5 612.5L1337.5 637.5L1287.5 637.5" stroke-width="4.17" stroke="rgba(88, 164, 176, 1)"></path><path d="M1358.33 612.5 a4.17 4.17 0 1 0 8.34 0 a4.17 4.17 0 1 0 -8.34 0zM1283.33 637.5 a4.17 4.17 0 1 0 8.34 0 a4.17 4.17 0 1 0 -8.34 0z" fill="rgba(88, 164, 176, 1)"></path><path d="M1287.5 337.5L1287.5 212.5L1312.5 187.5L1337.5 187.5L1387.5 237.5L1387.5 437.5" stroke-width="4.17" stroke="rgba(88, 164, 176, 1)"></path><path d="M1283.33 337.5 a4.17 4.17 0 1 0 8.34 0 a4.17 4.17 0 1 0 -8.34 0zM1383.33 437.5 a4.17 4.17 0 1 0 8.34 0 a4.17 4.17 0 1 0 -8.34 0z" fill="rgba(88, 164, 176, 1)"></path><path d="M987.5 462.5L962.5 487.5L962.5 537.5L1012.5 587.5L1012.5 637.5" stroke-width="4.17" stroke="rgba(88, 164, 176, 1)"></path><path d="M983.33 462.5 a4.17 4.17 0 1 0 8.34 0 a4.17 4.17 0 1 0 -8.34 0zM1008.33 637.5 a4.17 4.17 0 1 0 8.34 0 a4.17 4.17 0 1 0 -8.34 0z" fill="rgba(88, 164, 176, 1)"></path><path d="M512.5 112.5L637.5 237.5L662.5 237.5" stroke-width="4.17" stroke="rgba(88, 164, 176, 1)"></path><path d="M508.33 112.5 a4.17 4.17 0 1 0 8.34 0 a4.17 4.17 0 1 0 -8.34 0zM658.33 237.5 a4.17 4.17 0 1 0 8.34 0 a4.17 4.17 0 1 0 -8.34 0z" fill="rgba(88, 164, 176, 1)"></path><path d="M712.5 312.5L837.5 312.5L862.5 337.5" stroke-width="4.17" stroke="rgba(88, 164, 176, 1)"></path><path d="M708.33 312.5 a4.17 4.17 0 1 0 8.34 0 a4.17 4.17 0 1 0 -8.34 0zM858.33 337.5 a4.17 4.17 0 1 0 8.34 0 a4.17 4.17 0 1 0 -8.34 0z" fill="rgba(88, 164, 176, 1)"></path><path d="M1762.5 237.5L1762.5 187.5L1737.5 162.5L1662.5 162.5L1637.5 187.5" stroke-width="4.17" stroke="rgba(88, 164, 176, 1)"></path><path d="M1758.33 237.5 a4.17 4.17 0 1 0 8.34 0 a4.17 4.17 0 1 0 -8.34 0zM1633.33 187.5 a4.17 4.17 0 1 0 8.34 0 a4.17 4.17 0 1 0 -8.34 0z" fill="rgba(88, 164, 176, 1)"></path><path d="M1587.5 187.5L1587.5 137.5" stroke-width="4.17" stroke="rgba(88, 164, 176, 1)"></path><path d="M1583.33 187.5 a4.17 4.17 0 1 0 8.34 0 a4.17 4.17 0 1 0 -8.34 0zM1583.33 137.5 a4.17 4.17 0 1 0 8.34 0 a4.17 4.17 0 1 0 -8.34 0z" fill="rgba(88, 164, 176, 1)"></path><path d="M1312.5 287.5L1362.5 287.5" stroke-width="4.17" stroke="rgba(88, 164, 176, 1)"></path><path d="M1308.33 287.5 a4.17 4.17 0 1 0 8.34 0 a4.17 4.17 0 1 0 -8.34 0zM1358.33 287.5 a4.17 4.17 0 1 0 8.34 0 a4.17 4.17 0 1 0 -8.34 0z" fill="rgba(88, 164, 176, 1)"></path><path d="M737.5 87.5L737.5 37.5L712.5 12.5L687.5 12.5" stroke-width="4.17" stroke="rgba(88, 164, 176, 1)"></path><path d="M733.33 87.5 a4.17 4.17 0 1 0 8.34 0 a4.17 4.17 0 1 0 -8.34 0zM683.33 12.5 a4.17 4.17 0 1 0 8.34 0 a4.17 4.17 0 1 0 -8.34 0z" fill="rgba(88, 164, 176, 1)"></path><path d="M1487.5 87.5L1512.5 87.5L1587.5 12.5L1612.5 12.5" stroke-width="4.17" stroke="rgba(88, 164, 176, 1)"></path><path d="M1483.33 87.5 a4.17 4.17 0 1 0 8.34 0 a4.17 4.17 0 1 0 -8.34 0zM1608.33 12.5 a4.17 4.17 0 1 0 8.34 0 a4.17 4.17 0 1 0 -8.34 0z" fill="rgba(88, 164, 176, 1)"></path><path d="M62.5 287.5L62.5 262.5L12.5 212.5" stroke-width="4.17" stroke="rgba(88, 164, 176, 1)"></path><path d="M58.33 287.5 a4.17 4.17 0 1 0 8.34 0 a4.17 4.17 0 1 0 -8.34 0zM8.33 212.5 a4.17 4.17 0 1 0 8.34 0 a4.17 4.17 0 1 0 -8.34 0z" fill="rgba(88, 164, 176, 1)"></path><path d="M337.5 587.5L337.5 562.5L362.5 537.5" stroke-width="4.17" stroke="rgba(88, 164, 176, 1)"></path><path d="M333.33 587.5 a4.17 4.17 0 1 0 8.34 0 a4.17 4.17 0 1 0 -8.34 0zM358.33 537.5 a4.17 4.17 0 1 0 8.34 0 a4.17 4.17 0 1 0 -8.34 0z" fill="rgba(88, 164, 176, 1)"></path><path d="M1212.5 312.5L1262.5 362.5L1362.5 362.5" stroke-width="4.17" stroke="rgba(88, 164, 176, 1)"></path><path d="M1208.33 312.5 a4.17 4.17 0 1 0 8.34 0 a4.17 4.17 0 1 0 -8.34 0zM1358.33 362.5 a4.17 4.17 0 1 0 8.34 0 a4.17 4.17 0 1 0 -8.34 0z" fill="rgba(88, 164, 176, 1)"></path><path d="M262.5 212.5L262.5 187.5L237.5 162.5L137.5 162.5L87.5 212.5" stroke-width="4.17" stroke="rgba(88, 164, 176, 1)"></path><path d="M258.33 212.5 a4.17 4.17 0 1 0 8.34 0 a4.17 4.17 0 1 0 -8.34 0zM83.33 212.5 a4.17 4.17 0 1 0 8.34 0 a4.17 4.17 0 1 0 -8.34 0z" fill="rgba(88, 164, 176, 1)"></path><path d="M462.5 587.5L437.5 612.5L287.5 612.5L262.5 637.5" stroke-width="4.17" stroke="rgba(88, 164, 176, 1)"></path><path d="M458.33 587.5 a4.17 4.17 0 1 0 8.34 0 a4.17 4.17 0 1 0 -8.34 0zM258.33 637.5 a4.17 4.17 0 1 0 8.34 0 a4.17 4.17 0 1 0 -8.34 0z" fill="rgba(88, 164, 176, 1)"></path><path d="M1737.5 312.5L1812.5 312.5" stroke-width="4.17" stroke="rgba(88, 164, 176, 1)"></path><path d="M1733.33 312.5 a4.17 4.17 0 1 0 8.34 0 a4.17 4.17 0 1 0 -8.34 0zM1808.33 312.5 a4.17 4.17 0 1 0 8.34 0 a4.17 4.17 0 1 0 -8.34 0z" fill="rgba(88, 164, 176, 1)"></path><path d="M337.5 487.5L362.5 487.5L437.5 412.5L437.5 387.5" stroke-width="4.17" stroke="rgba(88, 164, 176, 1)"></path><path d="M333.33 487.5 a4.17 4.17 0 1 0 8.34 0 a4.17 4.17 0 1 0 -8.34 0zM433.33 387.5 a4.17 4.17 0 1 0 8.34 0 a4.17 4.17 0 1 0 -8.34 0z" fill="rgba(88, 164, 176, 1)"></path><path d="M1762.5 337.5L1712.5 337.5" stroke-width="4.17" stroke="rgba(88, 164, 176, 1)"></path><path d="M1758.33 337.5 a4.17 4.17 0 1 0 8.34 0 a4.17 4.17 0 1 0 -8.34 0zM1708.33 337.5 a4.17 4.17 0 1 0 8.34 0 a4.17 4.17 0 1 0 -8.34 0z" fill="rgba(88, 164, 176, 1)"></path><path d="M312.5 287.5L362.5 287.5" stroke-width="4.17" stroke="rgba(88, 164, 176, 1)"></path><path d="M308.33 287.5 a4.17 4.17 0 1 0 8.34 0 a4.17 4.17 0 1 0 -8.34 0zM358.33 287.5 a4.17 4.17 0 1 0 8.34 0 a4.17 4.17 0 1 0 -8.34 0z" fill="rgba(88, 164, 176, 1)"></path><path d="M1562.5 337.5L1512.5 337.5" stroke-width="4.17" stroke="rgba(88, 164, 176, 1)"></path><path d="M1558.33 337.5 a4.17 4.17 0 1 0 8.34 0 a4.17 4.17 0 1 0 -8.34 0zM1508.33 337.5 a4.17 4.17 0 1 0 8.34 0 a4.17 4.17 0 1 0 -8.34 0z" fill="rgba(88, 164, 176, 1)"></path><path d="M437.5 487.5L412.5 512.5L412.5 537.5L437.5 562.5L512.5 562.5L587.5 637.5" stroke-width="4.17" stroke="rgba(88, 164, 176, 1)"></path><path d="M433.33 487.5 a4.17 4.17 0 1 0 8.34 0 a4.17 4.17 0 1 0 -8.34 0zM583.33 637.5 a4.17 4.17 0 1 0 8.34 0 a4.17 4.17 0 1 0 -8.34 0z" fill="rgba(88, 164, 176, 1)"></path><path d="M1737.5 362.5L1687.5 412.5L1587.5 412.5L1537.5 362.5" stroke-width="4.17" stroke="rgba(88, 164, 176, 1)"></path><path d="M1733.33 362.5 a4.17 4.17 0 1 0 8.34 0 a4.17 4.17 0 1 0 -8.34 0zM1533.33 362.5 a4.17 4.17 0 1 0 8.34 0 a4.17 4.17 0 1 0 -8.34 0z" fill="rgba(88, 164, 176, 1)"></path><path d="M37.5 562.5L87.5 612.5L112.5 612.5L212.5 512.5L212.5 362.5" stroke-width="4.17" stroke="rgba(88, 164, 176, 1)"></path><path d="M33.33 562.5 a4.17 4.17 0 1 0 8.34 0 a4.17 4.17 0 1 0 -8.34 0zM208.33 362.5 a4.17 4.17 0 1 0 8.34 0 a4.17 4.17 0 1 0 -8.34 0z" fill="rgba(88, 164, 176, 1)"></path><path d="M1387.5 37.5L1537.5 37.5L1562.5 12.5" stroke-width="4.17" stroke="rgba(88, 164, 176, 1)"></path><path d="M1383.33 37.5 a4.17 4.17 0 1 0 8.34 0 a4.17 4.17 0 1 0 -8.34 0zM1558.33 12.5 a4.17 4.17 0 1 0 8.34 0 a4.17 4.17 0 1 0 -8.34 0z" fill="rgba(88, 164, 176, 1)"></path><path d="M562.5 262.5L587.5 287.5L612.5 287.5L637.5 262.5" stroke-width="4.17" stroke="rgba(88, 164, 176, 1)"></path><path d="M558.33 262.5 a4.17 4.17 0 1 0 8.34 0 a4.17 4.17 0 1 0 -8.34 0zM633.33 262.5 a4.17 4.17 0 1 0 8.34 0 a4.17 4.17 0 1 0 -8.34 0z" fill="rgba(88, 164, 176, 1)"></path><path d="M1787.5 487.5L1812.5 462.5L1812.5 387.5" stroke-width="4.17" stroke="rgba(88, 164, 176, 1)"></path><path d="M1783.33 487.5 a4.17 4.17 0 1 0 8.34 0 a4.17 4.17 0 1 0 -8.34 0zM1808.33 387.5 a4.17 4.17 0 1 0 8.34 0 a4.17 4.17 0 1 0 -8.34 0z" fill="rgba(88, 164, 176, 1)"></path><path d="M62.5 637.5L12.5 637.5" stroke-width="4.17" stroke="rgba(88, 164, 176, 1)"></path><path d="M58.33 637.5 a4.17 4.17 0 1 0 8.34 0 a4.17 4.17 0 1 0 -8.34 0zM8.33 637.5 a4.17 4.17 0 1 0 8.34 0 a4.17 4.17 0 1 0 -8.34 0z" fill="rgba(88, 164, 176, 1)"></path><path d="M1437.5 612.5L1412.5 587.5L1412.5 562.5" stroke-width="4.17" stroke="rgba(88, 164, 176, 1)"></path><path d="M1433.33 612.5 a4.17 4.17 0 1 0 8.34 0 a4.17 4.17 0 1 0 -8.34 0zM1408.33 562.5 a4.17 4.17 0 1 0 8.34 0 a4.17 4.17 0 1 0 -8.34 0z" fill="rgba(88, 164, 176, 1)"></path><path d="M1062.5 337.5L1062.5 387.5" stroke-width="4.17" stroke="rgba(88, 164, 176, 1)"></path><path d="M1058.33 337.5 a4.17 4.17 0 1 0 8.34 0 a4.17 4.17 0 1 0 -8.34 0zM1058.33 387.5 a4.17 4.17 0 1 0 8.34 0 a4.17 4.17 0 1 0 -8.34 0z" fill="rgba(88, 164, 176, 1)"></path><path d="M1437.5 12.5L1537.5 12.5" stroke-width="4.17" stroke="rgba(88, 164, 176, 1)"></path><path d="M1433.33 12.5 a4.17 4.17 0 1 0 8.34 0 a4.17 4.17 0 1 0 -8.34 0zM1533.33 12.5 a4.17 4.17 0 1 0 8.34 0 a4.17 4.17 0 1 0 -8.34 0z" fill="rgba(88, 164, 176, 1)"></path><path d="M562.5 187.5L512.5 187.5L387.5 312.5" stroke-width="4.17" stroke="rgba(88, 164, 176, 1)"></path><path d="M558.33 187.5 a4.17 4.17 0 1 0 8.34 0 a4.17 4.17 0 1 0 -8.34 0zM383.33 312.5 a4.17 4.17 0 1 0 8.34 0 a4.17 4.17 0 1 0 -8.34 0z" fill="rgba(88, 164, 176, 1)"></path><path d="M1462.5 512.5L1512.5 562.5L1612.5 562.5L1687.5 637.5" stroke-width="4.17" stroke="rgba(88, 164, 176, 1)"></path><path d="M1458.33 512.5 a4.17 4.17 0 1 0 8.34 0 a4.17 4.17 0 1 0 -8.34 0zM1683.33 637.5 a4.17 4.17 0 1 0 8.34 0 a4.17 4.17 0 1 0 -8.34 0z" fill="rgba(88, 164, 176, 1)"></path><path d="M962.5 112.5L987.5 112.5L1012.5 87.5L1012.5 62.5" stroke-width="4.17" stroke="rgba(88, 164, 176, 1)"></path><path d="M958.33 112.5 a4.17 4.17 0 1 0 8.34 0 a4.17 4.17 0 1 0 -8.34 0zM1008.33 62.5 a4.17 4.17 0 1 0 8.34 0 a4.17 4.17 0 1 0 -8.34 0z" fill="rgba(88, 164, 176, 1)"></path><path d="M712.5 237.5L762.5 287.5L812.5 287.5" stroke-width="4.17" stroke="rgba(88, 164, 176, 1)"></path><path d="M708.33 237.5 a4.17 4.17 0 1 0 8.34 0 a4.17 4.17 0 1 0 -8.34 0zM808.33 287.5 a4.17 4.17 0 1 0 8.34 0 a4.17 4.17 0 1 0 -8.34 0z" fill="rgba(88, 164, 176, 1)"></path><path d="M1812.5 562.5L1837.5 587.5L1837.5 637.5" stroke-width="4.17" stroke="rgba(88, 164, 176, 1)"></path><path d="M1808.33 562.5 a4.17 4.17 0 1 0 8.34 0 a4.17 4.17 0 1 0 -8.34 0zM1833.33 637.5 a4.17 4.17 0 1 0 8.34 0 a4.17 4.17 0 1 0 -8.34 0z" fill="rgba(88, 164, 176, 1)"></path><path d="M1212.5 112.5L1312.5 12.5L1412.5 12.5" stroke-width="4.17" stroke="rgba(88, 164, 176, 1)"></path><path d="M1208.33 112.5 a4.17 4.17 0 1 0 8.34 0 a4.17 4.17 0 1 0 -8.34 0zM1408.33 12.5 a4.17 4.17 0 1 0 8.34 0 a4.17 4.17 0 1 0 -8.34 0z" fill="rgba(88, 164, 176, 1)"></path><path d="M587.5 87.5L537.5 37.5L512.5 37.5L437.5 112.5" stroke-width="4.17" stroke="rgba(88, 164, 176, 1)"></path><path d="M583.33 87.5 a4.17 4.17 0 1 0 8.34 0 a4.17 4.17 0 1 0 -8.34 0zM433.33 112.5 a4.17 4.17 0 1 0 8.34 0 a4.17 4.17 0 1 0 -8.34 0z" fill="rgba(88, 164, 176, 1)"></path><path d="M637.5 462.5L737.5 462.5L837.5 362.5L837.5 337.5" stroke-width="4.17" stroke="rgba(88, 164, 176, 1)"></path><path d="M633.33 462.5 a4.17 4.17 0 1 0 8.34 0 a4.17 4.17 0 1 0 -8.34 0zM833.33 337.5 a4.17 4.17 0 1 0 8.34 0 a4.17 4.17 0 1 0 -8.34 0z" fill="rgba(88, 164, 176, 1)"></path><path d="M1487.5 212.5L1537.5 262.5L1587.5 262.5" stroke-width="4.17" stroke="rgba(88, 164, 176, 1)"></path><path d="M1483.33 212.5 a4.17 4.17 0 1 0 8.34 0 a4.17 4.17 0 1 0 -8.34 0zM1583.33 262.5 a4.17 4.17 0 1 0 8.34 0 a4.17 4.17 0 1 0 -8.34 0z" fill="rgba(88, 164, 176, 1)"></path><path d="M537.5 87.5L562.5 87.5L662.5 187.5L662.5 212.5" stroke-width="4.17" stroke="rgba(88, 164, 176, 1)"></path><path d="M533.33 87.5 a4.17 4.17 0 1 0 8.34 0 a4.17 4.17 0 1 0 -8.34 0zM658.33 212.5 a4.17 4.17 0 1 0 8.34 0 a4.17 4.17 0 1 0 -8.34 0z" fill="rgba(88, 164, 176, 1)"></path><path d="M1737.5 462.5L1762.5 487.5L1762.5 512.5L1712.5 562.5L1712.5 587.5" stroke-width="4.17" stroke="rgba(88, 164, 176, 1)"></path><path d="M1733.33 462.5 a4.17 4.17 0 1 0 8.34 0 a4.17 4.17 0 1 0 -8.34 0zM1708.33 587.5 a4.17 4.17 0 1 0 8.34 0 a4.17 4.17 0 1 0 -8.34 0z" fill="rgba(88, 164, 176, 1)"></path><path d="M237.5 412.5L237.5 362.5" stroke-width="4.17" stroke="rgba(88, 164, 176, 1)"></path><path d="M233.33 412.5 a4.17 4.17 0 1 0 8.34 0 a4.17 4.17 0 1 0 -8.34 0zM233.33 362.5 a4.17 4.17 0 1 0 8.34 0 a4.17 4.17 0 1 0 -8.34 0z" fill="rgba(88, 164, 176, 1)"></path><path d="M1362.5 512.5L1287.5 587.5L1287.5 612.5" stroke-width="4.17" stroke="rgba(88, 164, 176, 1)"></path><path d="M1358.33 512.5 a4.17 4.17 0 1 0 8.34 0 a4.17 4.17 0 1 0 -8.34 0zM1283.33 612.5 a4.17 4.17 0 1 0 8.34 0 a4.17 4.17 0 1 0 -8.34 0z" fill="rgba(88, 164, 176, 1)"></path><path d="M337.5 87.5L287.5 37.5" stroke-width="4.17" stroke="rgba(88, 164, 176, 1)"></path><path d="M333.33 87.5 a4.17 4.17 0 1 0 8.34 0 a4.17 4.17 0 1 0 -8.34 0zM283.33 37.5 a4.17 4.17 0 1 0 8.34 0 a4.17 4.17 0 1 0 -8.34 0z" fill="rgba(88, 164, 176, 1)"></path><path d="M1562.5 162.5L1412.5 162.5" stroke-width="4.17" stroke="rgba(88, 164, 176, 1)"></path><path d="M1558.33 162.5 a4.17 4.17 0 1 0 8.34 0 a4.17 4.17 0 1 0 -8.34 0zM1408.33 162.5 a4.17 4.17 0 1 0 8.34 0 a4.17 4.17 0 1 0 -8.34 0z" fill="rgba(88, 164, 176, 1)"></path><path d="M287.5 562.5L337.5 512.5" stroke-width="4.17" stroke="rgba(88, 164, 176, 1)"></path><path d="M283.33 562.5 a4.17 4.17 0 1 0 8.34 0 a4.17 4.17 0 1 0 -8.34 0zM333.33 512.5 a4.17 4.17 0 1 0 8.34 0 a4.17 4.17 0 1 0 -8.34 0z" fill="rgba(88, 164, 176, 1)"></path><path d="M162.5 237.5L287.5 237.5" stroke-width="4.17" stroke="rgba(88, 164, 176, 1)"></path><path d="M158.33 237.5 a4.17 4.17 0 1 0 8.34 0 a4.17 4.17 0 1 0 -8.34 0zM283.33 237.5 a4.17 4.17 0 1 0 8.34 0 a4.17 4.17 0 1 0 -8.34 0z" fill="rgba(88, 164, 176, 1)"></path><path d="M1662.5 637.5L1612.5 587.5L1487.5 587.5L1437.5 537.5L1437.5 437.5" stroke-width="4.17" stroke="rgba(88, 164, 176, 1)"></path><path d="M1658.33 637.5 a4.17 4.17 0 1 0 8.34 0 a4.17 4.17 0 1 0 -8.34 0zM1433.33 437.5 a4.17 4.17 0 1 0 8.34 0 a4.17 4.17 0 1 0 -8.34 0z" fill="rgba(88, 164, 176, 1)"></path><path d="M87.5 562.5L87.5 387.5L112.5 362.5L187.5 362.5" stroke-width="4.17" stroke="rgba(88, 164, 176, 1)"></path><path d="M83.33 562.5 a4.17 4.17 0 1 0 8.34 0 a4.17 4.17 0 1 0 -8.34 0zM183.33 362.5 a4.17 4.17 0 1 0 8.34 0 a4.17 4.17 0 1 0 -8.34 0z" fill="rgba(88, 164, 176, 1)"></path><path d="M637.5 612.5L687.5 562.5L737.5 562.5" stroke-width="4.17" stroke="rgba(88, 164, 176, 1)"></path><path d="M633.33 612.5 a4.17 4.17 0 1 0 8.34 0 a4.17 4.17 0 1 0 -8.34 0zM733.33 562.5 a4.17 4.17 0 1 0 8.34 0 a4.17 4.17 0 1 0 -8.34 0z" fill="rgba(88, 164, 176, 1)"></path><path d="M962.5 262.5L1012.5 262.5" stroke-width="4.17" stroke="rgba(88, 164, 176, 1)"></path><path d="M958.33 262.5 a4.17 4.17 0 1 0 8.34 0 a4.17 4.17 0 1 0 -8.34 0zM1008.33 262.5 a4.17 4.17 0 1 0 8.34 0 a4.17 4.17 0 1 0 -8.34 0z" fill="rgba(88, 164, 176, 1)"></path><path d="M1287.5 62.5L1212.5 137.5L1187.5 137.5L1062.5 12.5L1037.5 12.5" stroke-width="4.17" stroke="rgba(88, 164, 176, 1)"></path><path d="M1283.33 62.5 a4.17 4.17 0 1 0 8.34 0 a4.17 4.17 0 1 0 -8.34 0zM1033.33 12.5 a4.17 4.17 0 1 0 8.34 0 a4.17 4.17 0 1 0 -8.34 0z" fill="rgba(88, 164, 176, 1)"></path><path d="M762.5 412.5L762.5 337.5" stroke-width="4.17" stroke="rgba(88, 164, 176, 1)"></path><path d="M758.33 412.5 a4.17 4.17 0 1 0 8.34 0 a4.17 4.17 0 1 0 -8.34 0zM758.33 337.5 a4.17 4.17 0 1 0 8.34 0 a4.17 4.17 0 1 0 -8.34 0z" fill="rgba(88, 164, 176, 1)"></path><path d="M87.5 587.5L112.5 587.5L187.5 512.5L187.5 437.5L137.5 387.5L112.5 387.5" stroke-width="4.17" stroke="rgba(88, 164, 176, 1)"></path><path d="M83.33 587.5 a4.17 4.17 0 1 0 8.34 0 a4.17 4.17 0 1 0 -8.34 0zM108.33 387.5 a4.17 4.17 0 1 0 8.34 0 a4.17 4.17 0 1 0 -8.34 0z" fill="rgba(88, 164, 176, 1)"></path><path d="M1537.5 612.5L1612.5 612.5" stroke-width="4.17" stroke="rgba(88, 164, 176, 1)"></path><path d="M1533.33 612.5 a4.17 4.17 0 1 0 8.34 0 a4.17 4.17 0 1 0 -8.34 0zM1608.33 612.5 a4.17 4.17 0 1 0 8.34 0 a4.17 4.17 0 1 0 -8.34 0z" fill="rgba(88, 164, 176, 1)"></path><path d="M1637.5 312.5L1637.5 387.5" stroke-width="4.17" stroke="rgba(88, 164, 176, 1)"></path><path d="M1633.33 312.5 a4.17 4.17 0 1 0 8.34 0 a4.17 4.17 0 1 0 -8.34 0zM1633.33 387.5 a4.17 4.17 0 1 0 8.34 0 a4.17 4.17 0 1 0 -8.34 0z" fill="rgba(88, 164, 176, 1)"></path><path d="M62.5 487.5L12.5 537.5" stroke-width="4.17" stroke="rgba(88, 164, 176, 1)"></path><path d="M58.33 487.5 a4.17 4.17 0 1 0 8.34 0 a4.17 4.17 0 1 0 -8.34 0zM8.33 537.5 a4.17 4.17 0 1 0 8.34 0 a4.17 4.17 0 1 0 -8.34 0z" fill="rgba(88, 164, 176, 1)"></path><path d="M1487.5 512.5L1537.5 462.5L1537.5 412.5L1512.5 387.5L1437.5 387.5" stroke-width="4.17" stroke="rgba(88, 164, 176, 1)"></path><path d="M1483.33 512.5 a4.17 4.17 0 1 0 8.34 0 a4.17 4.17 0 1 0 -8.34 0zM1433.33 387.5 a4.17 4.17 0 1 0 8.34 0 a4.17 4.17 0 1 0 -8.34 0z" fill="rgba(88, 164, 176, 1)"></path><path d="M812.5 487.5L812.5 437.5" stroke-width="4.17" stroke="rgba(88, 164, 176, 1)"></path><path d="M808.33 487.5 a4.17 4.17 0 1 0 8.34 0 a4.17 4.17 0 1 0 -8.34 0zM808.33 437.5 a4.17 4.17 0 1 0 8.34 0 a4.17 4.17 0 1 0 -8.34 0z" fill="rgba(88, 164, 176, 1)"></path><path d="M1387.5 62.5L1262.5 187.5L1237.5 187.5L1212.5 162.5" stroke-width="4.17" stroke="rgba(88, 164, 176, 1)"></path><path d="M1383.33 62.5 a4.17 4.17 0 1 0 8.34 0 a4.17 4.17 0 1 0 -8.34 0zM1208.33 162.5 a4.17 4.17 0 1 0 8.34 0 a4.17 4.17 0 1 0 -8.34 0z" fill="rgba(88, 164, 176, 1)"></path><path d="M1012.5 137.5L1012.5 162.5L1037.5 187.5L1062.5 187.5" stroke-width="4.17" stroke="rgba(88, 164, 176, 1)"></path><path d="M1008.33 137.5 a4.17 4.17 0 1 0 8.34 0 a4.17 4.17 0 1 0 -8.34 0zM1058.33 187.5 a4.17 4.17 0 1 0 8.34 0 a4.17 4.17 0 1 0 -8.34 0z" fill="rgba(88, 164, 176, 1)"></path><path d="M1762.5 12.5L1762.5 87.5" stroke-width="4.17" stroke="rgba(88, 164, 176, 1)"></path><path d="M1758.33 12.5 a4.17 4.17 0 1 0 8.34 0 a4.17 4.17 0 1 0 -8.34 0zM1758.33 87.5 a4.17 4.17 0 1 0 8.34 0 a4.17 4.17 0 1 0 -8.34 0z" fill="rgba(88, 164, 176, 1)"></path><path d="M387.5 62.5L387.5 12.5" stroke-width="4.17" stroke="rgba(88, 164, 176, 1)"></path><path d="M383.33 62.5 a4.17 4.17 0 1 0 8.34 0 a4.17 4.17 0 1 0 -8.34 0zM383.33 12.5 a4.17 4.17 0 1 0 8.34 0 a4.17 4.17 0 1 0 -8.34 0z" fill="rgba(88, 164, 176, 1)"></path><path d="M137.5 437.5L137.5 537.5" stroke-width="4.17" stroke="rgba(88, 164, 176, 1)"></path><path d="M133.33 437.5 a4.17 4.17 0 1 0 8.34 0 a4.17 4.17 0 1 0 -8.34 0zM133.33 537.5 a4.17 4.17 0 1 0 8.34 0 a4.17 4.17 0 1 0 -8.34 0z" fill="rgba(88, 164, 176, 1)"></path><path d="M412.5 387.5L187.5 612.5L162.5 612.5" stroke-width="4.17" stroke="rgba(88, 164, 176, 1)"></path><path d="M408.33 387.5 a4.17 4.17 0 1 0 8.34 0 a4.17 4.17 0 1 0 -8.34 0zM158.33 612.5 a4.17 4.17 0 1 0 8.34 0 a4.17 4.17 0 1 0 -8.34 0z" fill="rgba(88, 164, 176, 1)"></path><path d="M1187.5 112.5L1187.5 12.5" stroke-width="4.17" stroke="rgba(88, 164, 176, 1)"></path><path d="M1183.33 112.5 a4.17 4.17 0 1 0 8.34 0 a4.17 4.17 0 1 0 -8.34 0zM1183.33 12.5 a4.17 4.17 0 1 0 8.34 0 a4.17 4.17 0 1 0 -8.34 0z" fill="rgba(88, 164, 176, 1)"></path><path d="M1312.5 112.5L1362.5 62.5L1362.5 37.5" stroke-width="4.17" stroke="rgba(88, 164, 176, 1)"></path><path d="M1308.33 112.5 a4.17 4.17 0 1 0 8.34 0 a4.17 4.17 0 1 0 -8.34 0zM1358.33 37.5 a4.17 4.17 0 1 0 8.34 0 a4.17 4.17 0 1 0 -8.34 0z" fill="rgba(88, 164, 176, 1)"></path><path d="M1112.5 512.5L1112.5 487.5L1162.5 437.5L1237.5 437.5" stroke-width="4.17" stroke="rgba(88, 164, 176, 1)"></path><path d="M1108.33 512.5 a4.17 4.17 0 1 0 8.34 0 a4.17 4.17 0 1 0 -8.34 0zM1233.33 437.5 a4.17 4.17 0 1 0 8.34 0 a4.17 4.17 0 1 0 -8.34 0z" fill="rgba(88, 164, 176, 1)"></path><path d="M987.5 212.5L912.5 212.5L762.5 62.5L762.5 37.5" stroke-width="4.17" stroke="rgba(88, 164, 176, 1)"></path><path d="M983.33 212.5 a4.17 4.17 0 1 0 8.34 0 a4.17 4.17 0 1 0 -8.34 0zM758.33 37.5 a4.17 4.17 0 1 0 8.34 0 a4.17 4.17 0 1 0 -8.34 0z" fill="rgba(88, 164, 176, 1)"></path><path d="M1137.5 487.5L1137.5 512.5L1212.5 587.5L1237.5 587.5" stroke-width="4.17" stroke="rgba(88, 164, 176, 1)"></path><path d="M1133.33 487.5 a4.17 4.17 0 1 0 8.34 0 a4.17 4.17 0 1 0 -8.34 0zM1233.33 587.5 a4.17 4.17 0 1 0 8.34 0 a4.17 4.17 0 1 0 -8.34 0z" fill="rgba(88, 164, 176, 1)"></path><path d="M1512.5 187.5L1562.5 237.5L1587.5 237.5" stroke-width="4.17" stroke="rgba(88, 164, 176, 1)"></path><path d="M1508.33 187.5 a4.17 4.17 0 1 0 8.34 0 a4.17 4.17 0 1 0 -8.34 0zM1583.33 237.5 a4.17 4.17 0 1 0 8.34 0 a4.17 4.17 0 1 0 -8.34 0z" fill="rgba(88, 164, 176, 1)"></path><path d="M887.5 637.5L862.5 612.5L837.5 612.5" stroke-width="4.17" stroke="rgba(88, 164, 176, 1)"></path><path d="M883.33 637.5 a4.17 4.17 0 1 0 8.34 0 a4.17 4.17 0 1 0 -8.34 0zM833.33 612.5 a4.17 4.17 0 1 0 8.34 0 a4.17 4.17 0 1 0 -8.34 0z" fill="rgba(88, 164, 176, 1)"></path><path d="M1537.5 137.5L1412.5 137.5" stroke-width="4.17" stroke="rgba(88, 164, 176, 1)"></path><path d="M1533.33 137.5 a4.17 4.17 0 1 0 8.34 0 a4.17 4.17 0 1 0 -8.34 0zM1408.33 137.5 a4.17 4.17 0 1 0 8.34 0 a4.17 4.17 0 1 0 -8.34 0z" fill="rgba(88, 164, 176, 1)"></path><path d="M312.5 87.5L287.5 62.5L262.5 62.5L212.5 112.5L187.5 112.5" stroke-width="4.17" stroke="rgba(88, 164, 176, 1)"></path><path d="M308.33 87.5 a4.17 4.17 0 1 0 8.34 0 a4.17 4.17 0 1 0 -8.34 0zM183.33 112.5 a4.17 4.17 0 1 0 8.34 0 a4.17 4.17 0 1 0 -8.34 0z" fill="rgba(88, 164, 176, 1)"></path><path d="M37.5 287.5L87.5 337.5" stroke-width="4.17" stroke="rgba(88, 164, 176, 1)"></path><path d="M33.33 287.5 a4.17 4.17 0 1 0 8.34 0 a4.17 4.17 0 1 0 -8.34 0zM83.33 337.5 a4.17 4.17 0 1 0 8.34 0 a4.17 4.17 0 1 0 -8.34 0z" fill="rgba(88, 164, 176, 1)"></path><path d="M337.5 637.5L287.5 637.5" stroke-width="4.17" stroke="rgba(88, 164, 176, 1)"></path><path d="M333.33 637.5 a4.17 4.17 0 1 0 8.34 0 a4.17 4.17 0 1 0 -8.34 0zM283.33 637.5 a4.17 4.17 0 1 0 8.34 0 a4.17 4.17 0 1 0 -8.34 0z" fill="rgba(88, 164, 176, 1)"></path><path d="M962.5 637.5L912.5 637.5L862.5 587.5L837.5 587.5" stroke-width="4.17" stroke="rgba(88, 164, 176, 1)"></path><path d="M958.33 637.5 a4.17 4.17 0 1 0 8.34 0 a4.17 4.17 0 1 0 -8.34 0zM833.33 587.5 a4.17 4.17 0 1 0 8.34 0 a4.17 4.17 0 1 0 -8.34 0z" fill="rgba(88, 164, 176, 1)"></path><path d="M1137.5 262.5L1187.5 212.5L1187.5 187.5" stroke-width="4.17" stroke="rgba(88, 164, 176, 1)"></path><path d="M1133.33 262.5 a4.17 4.17 0 1 0 8.34 0 a4.17 4.17 0 1 0 -8.34 0zM1183.33 187.5 a4.17 4.17 0 1 0 8.34 0 a4.17 4.17 0 1 0 -8.34 0z" fill="rgba(88, 164, 176, 1)"></path><path d="M1662.5 512.5L1662.5 537.5L1687.5 562.5" stroke-width="4.17" stroke="rgba(88, 164, 176, 1)"></path><path d="M1658.33 512.5 a4.17 4.17 0 1 0 8.34 0 a4.17 4.17 0 1 0 -8.34 0zM1683.33 562.5 a4.17 4.17 0 1 0 8.34 0 a4.17 4.17 0 1 0 -8.34 0z" fill="rgba(88, 164, 176, 1)"></path><path d="M1287.5 87.5L1312.5 62.5L1337.5 62.5" stroke-width="4.17" stroke="rgba(88, 164, 176, 1)"></path><path d="M1283.33 87.5 a4.17 4.17 0 1 0 8.34 0 a4.17 4.17 0 1 0 -8.34 0zM1333.33 62.5 a4.17 4.17 0 1 0 8.34 0 a4.17 4.17 0 1 0 -8.34 0z" fill="rgba(88, 164, 176, 1)"></path><path d="M1512.5 62.5L1412.5 62.5" stroke-width="4.17" stroke="rgba(88, 164, 176, 1)"></path><path d="M1508.33 62.5 a4.17 4.17 0 1 0 8.34 0 a4.17 4.17 0 1 0 -8.34 0zM1408.33 62.5 a4.17 4.17 0 1 0 8.34 0 a4.17 4.17 0 1 0 -8.34 0z" fill="rgba(88, 164, 176, 1)"></path><path d="M812.5 87.5L887.5 87.5" stroke-width="4.17" stroke="rgba(88, 164, 176, 1)"></path><path d="M808.33 87.5 a4.17 4.17 0 1 0 8.34 0 a4.17 4.17 0 1 0 -8.34 0zM883.33 87.5 a4.17 4.17 0 1 0 8.34 0 a4.17 4.17 0 1 0 -8.34 0z" fill="rgba(88, 164, 176, 1)"></path><path d="M1762.5 362.5L1787.5 362.5L1812.5 337.5" stroke-width="4.17" stroke="rgba(88, 164, 176, 1)"></path><path d="M1758.33 362.5 a4.17 4.17 0 1 0 8.34 0 a4.17 4.17 0 1 0 -8.34 0zM1808.33 337.5 a4.17 4.17 0 1 0 8.34 0 a4.17 4.17 0 1 0 -8.34 0z" fill="rgba(88, 164, 176, 1)"></path><path d="M712.5 537.5L612.5 537.5" stroke-width="4.17" stroke="rgba(88, 164, 176, 1)"></path><path d="M708.33 537.5 a4.17 4.17 0 1 0 8.34 0 a4.17 4.17 0 1 0 -8.34 0zM608.33 537.5 a4.17 4.17 0 1 0 8.34 0 a4.17 4.17 0 1 0 -8.34 0z" fill="rgba(88, 164, 176, 1)"></path><path d="M762.5 237.5L612.5 87.5" stroke-width="4.17" stroke="rgba(88, 164, 176, 1)"></path><path d="M758.33 237.5 a4.17 4.17 0 1 0 8.34 0 a4.17 4.17 0 1 0 -8.34 0zM608.33 87.5 a4.17 4.17 0 1 0 8.34 0 a4.17 4.17 0 1 0 -8.34 0z" fill="rgba(88, 164, 176, 1)"></path><path d="M412.5 12.5L412.5 62.5" stroke-width="4.17" stroke="rgba(88, 164, 176, 1)"></path><path d="M408.33 12.5 a4.17 4.17 0 1 0 8.34 0 a4.17 4.17 0 1 0 -8.34 0zM408.33 62.5 a4.17 4.17 0 1 0 8.34 0 a4.17 4.17 0 1 0 -8.34 0z" fill="rgba(88, 164, 176, 1)"></path><path d="M87.5 37.5L87.5 87.5" stroke-width="4.17" stroke="rgba(88, 164, 176, 1)"></path><path d="M83.33 37.5 a4.17 4.17 0 1 0 8.34 0 a4.17 4.17 0 1 0 -8.34 0zM83.33 87.5 a4.17 4.17 0 1 0 8.34 0 a4.17 4.17 0 1 0 -8.34 0z" fill="rgba(88, 164, 176, 1)"></path><path d="M512.5 262.5L462.5 262.5L412.5 312.5" stroke-width="4.17" stroke="rgba(88, 164, 176, 1)"></path><path d="M508.33 262.5 a4.17 4.17 0 1 0 8.34 0 a4.17 4.17 0 1 0 -8.34 0zM408.33 312.5 a4.17 4.17 0 1 0 8.34 0 a4.17 4.17 0 1 0 -8.34 0z" fill="rgba(88, 164, 176, 1)"></path><path d="M212.5 187.5L137.5 187.5L112.5 212.5L112.5 237.5" stroke-width="4.17" stroke="rgba(88, 164, 176, 1)"></path><path d="M208.33 187.5 a4.17 4.17 0 1 0 8.34 0 a4.17 4.17 0 1 0 -8.34 0zM108.33 237.5 a4.17 4.17 0 1 0 8.34 0 a4.17 4.17 0 1 0 -8.34 0z" fill="rgba(88, 164, 176, 1)"></path><path d="M1737.5 187.5L1737.5 237.5" stroke-width="4.17" stroke="rgba(88, 164, 176, 1)"></path><path d="M1733.33 187.5 a4.17 4.17 0 1 0 8.34 0 a4.17 4.17 0 1 0 -8.34 0zM1733.33 237.5 a4.17 4.17 0 1 0 8.34 0 a4.17 4.17 0 1 0 -8.34 0z" fill="rgba(88, 164, 176, 1)"></path><path d="M587.5 437.5L712.5 437.5" stroke-width="4.17" stroke="rgba(88, 164, 176, 1)"></path><path d="M583.33 437.5 a4.17 4.17 0 1 0 8.34 0 a4.17 4.17 0 1 0 -8.34 0zM708.33 437.5 a4.17 4.17 0 1 0 8.34 0 a4.17 4.17 0 1 0 -8.34 0z" fill="rgba(88, 164, 176, 1)"></path><path d="M12.5 512.5L12.5 362.5" stroke-width="4.17" stroke="rgba(88, 164, 176, 1)"></path><path d="M8.33 512.5 a4.17 4.17 0 1 0 8.34 0 a4.17 4.17 0 1 0 -8.34 0zM8.33 362.5 a4.17 4.17 0 1 0 8.34 0 a4.17 4.17 0 1 0 -8.34 0z" fill="rgba(88, 164, 176, 1)"></path><path d="M362.5 637.5L562.5 637.5" stroke-width="4.17" stroke="rgba(88, 164, 176, 1)"></path><path d="M358.33 637.5 a4.17 4.17 0 1 0 8.34 0 a4.17 4.17 0 1 0 -8.34 0zM558.33 637.5 a4.17 4.17 0 1 0 8.34 0 a4.17 4.17 0 1 0 -8.34 0z" fill="rgba(88, 164, 176, 1)"></path><path d="M662.5 337.5L587.5 412.5" stroke-width="4.17" stroke="rgba(88, 164, 176, 1)"></path><path d="M658.33 337.5 a4.17 4.17 0 1 0 8.34 0 a4.17 4.17 0 1 0 -8.34 0zM583.33 412.5 a4.17 4.17 0 1 0 8.34 0 a4.17 4.17 0 1 0 -8.34 0z" fill="rgba(88, 164, 176, 1)"></path><path d="M712.5 412.5L612.5 412.5" stroke-width="4.17" stroke="rgba(88, 164, 176, 1)"></path><path d="M708.33 412.5 a4.17 4.17 0 1 0 8.34 0 a4.17 4.17 0 1 0 -8.34 0zM608.33 412.5 a4.17 4.17 0 1 0 8.34 0 a4.17 4.17 0 1 0 -8.34 0z" fill="rgba(88, 164, 176, 1)"></path><path d="M1462.5 462.5L1462.5 437.5L1487.5 412.5L1512.5 412.5" stroke-width="4.17" stroke="rgba(88, 164, 176, 1)"></path><path d="M1458.33 462.5 a4.17 4.17 0 1 0 8.34 0 a4.17 4.17 0 1 0 -8.34 0zM1508.33 412.5 a4.17 4.17 0 1 0 8.34 0 a4.17 4.17 0 1 0 -8.34 0z" fill="rgba(88, 164, 176, 1)"></path><path d="M1687.5 512.5L1687.5 462.5" stroke-width="4.17" stroke="rgba(88, 164, 176, 1)"></path><path d="M1683.33 512.5 a4.17 4.17 0 1 0 8.34 0 a4.17 4.17 0 1 0 -8.34 0zM1683.33 462.5 a4.17 4.17 0 1 0 8.34 0 a4.17 4.17 0 1 0 -8.34 0z" fill="rgba(88, 164, 176, 1)"></path><path d="M87.5 12.5L162.5 12.5" stroke-width="4.17" stroke="rgba(88, 164, 176, 1)"></path><path d="M83.33 12.5 a4.17 4.17 0 1 0 8.34 0 a4.17 4.17 0 1 0 -8.34 0zM158.33 12.5 a4.17 4.17 0 1 0 8.34 0 a4.17 4.17 0 1 0 -8.34 0z" fill="rgba(88, 164, 176, 1)"></path><path d="M837.5 37.5L787.5 37.5" stroke-width="4.17" stroke="rgba(88, 164, 176, 1)"></path><path d="M833.33 37.5 a4.17 4.17 0 1 0 8.34 0 a4.17 4.17 0 1 0 -8.34 0zM783.33 37.5 a4.17 4.17 0 1 0 8.34 0 a4.17 4.17 0 1 0 -8.34 0z" fill="rgba(88, 164, 176, 1)"></path><path d="M1212.5 462.5L1162.5 462.5" stroke-width="4.17" stroke="rgba(88, 164, 176, 1)"></path><path d="M1208.33 462.5 a4.17 4.17 0 1 0 8.34 0 a4.17 4.17 0 1 0 -8.34 0zM1158.33 462.5 a4.17 4.17 0 1 0 8.34 0 a4.17 4.17 0 1 0 -8.34 0z" fill="rgba(88, 164, 176, 1)"></path><path d="M1312.5 312.5L1362.5 312.5" stroke-width="4.17" stroke="rgba(88, 164, 176, 1)"></path><path d="M1308.33 312.5 a4.17 4.17 0 1 0 8.34 0 a4.17 4.17 0 1 0 -8.34 0zM1358.33 312.5 a4.17 4.17 0 1 0 8.34 0 a4.17 4.17 0 1 0 -8.34 0z" fill="rgba(88, 164, 176, 1)"></path><path d="M1137.5 637.5L1112.5 612.5L1112.5 587.5" stroke-width="4.17" stroke="rgba(88, 164, 176, 1)"></path><path d="M1133.33 637.5 a4.17 4.17 0 1 0 8.34 0 a4.17 4.17 0 1 0 -8.34 0zM1108.33 587.5 a4.17 4.17 0 1 0 8.34 0 a4.17 4.17 0 1 0 -8.34 0z" fill="rgba(88, 164, 176, 1)"></path><path d="M1287.5 537.5L1287.5 487.5L1312.5 462.5L1312.5 437.5L1287.5 412.5" stroke-width="4.17" stroke="rgba(88, 164, 176, 1)"></path><path d="M1283.33 537.5 a4.17 4.17 0 1 0 8.34 0 a4.17 4.17 0 1 0 -8.34 0zM1283.33 412.5 a4.17 4.17 0 1 0 8.34 0 a4.17 4.17 0 1 0 -8.34 0z" fill="rgba(88, 164, 176, 1)"></path><path d="M1162.5 62.5L1112.5 12.5L1087.5 12.5" stroke-width="4.17" stroke="rgba(88, 164, 176, 1)"></path><path d="M1158.33 62.5 a4.17 4.17 0 1 0 8.34 0 a4.17 4.17 0 1 0 -8.34 0zM1083.33 12.5 a4.17 4.17 0 1 0 8.34 0 a4.17 4.17 0 1 0 -8.34 0z" fill="rgba(88, 164, 176, 1)"></path><path d="M1262.5 12.5L1212.5 12.5" stroke-width="4.17" stroke="rgba(88, 164, 176, 1)"></path><path d="M1258.33 12.5 a4.17 4.17 0 1 0 8.34 0 a4.17 4.17 0 1 0 -8.34 0zM1208.33 12.5 a4.17 4.17 0 1 0 8.34 0 a4.17 4.17 0 1 0 -8.34 0z" fill="rgba(88, 164, 176, 1)"></path><path d="M562.5 212.5L587.5 212.5L612.5 237.5L612.5 262.5" stroke-width="4.17" stroke="rgba(88, 164, 176, 1)"></path><path d="M558.33 212.5 a4.17 4.17 0 1 0 8.34 0 a4.17 4.17 0 1 0 -8.34 0zM608.33 262.5 a4.17 4.17 0 1 0 8.34 0 a4.17 4.17 0 1 0 -8.34 0z" fill="rgba(88, 164, 176, 1)"></path><path d="M1637.5 512.5L1662.5 487.5L1662.5 462.5" stroke-width="4.17" stroke="rgba(88, 164, 176, 1)"></path><path d="M1633.33 512.5 a4.17 4.17 0 1 0 8.34 0 a4.17 4.17 0 1 0 -8.34 0zM1658.33 462.5 a4.17 4.17 0 1 0 8.34 0 a4.17 4.17 0 1 0 -8.34 0z" fill="rgba(88, 164, 176, 1)"></path><path d="M1037.5 637.5L1062.5 612.5L1062.5 587.5" stroke-width="4.17" stroke="rgba(88, 164, 176, 1)"></path><path d="M1033.33 637.5 a4.17 4.17 0 1 0 8.34 0 a4.17 4.17 0 1 0 -8.34 0zM1058.33 587.5 a4.17 4.17 0 1 0 8.34 0 a4.17 4.17 0 1 0 -8.34 0z" fill="rgba(88, 164, 176, 1)"></path><path d="M1187.5 487.5L1212.5 512.5L1237.5 512.5" stroke-width="4.17" stroke="rgba(88, 164, 176, 1)"></path><path d="M1183.33 487.5 a4.17 4.17 0 1 0 8.34 0 a4.17 4.17 0 1 0 -8.34 0zM1233.33 512.5 a4.17 4.17 0 1 0 8.34 0 a4.17 4.17 0 1 0 -8.34 0z" fill="rgba(88, 164, 176, 1)"></path><path d="M312.5 187.5L337.5 162.5L387.5 162.5" stroke-width="4.17" stroke="rgba(88, 164, 176, 1)"></path><path d="M308.33 187.5 a4.17 4.17 0 1 0 8.34 0 a4.17 4.17 0 1 0 -8.34 0zM383.33 162.5 a4.17 4.17 0 1 0 8.34 0 a4.17 4.17 0 1 0 -8.34 0z" fill="rgba(88, 164, 176, 1)"></path><path d="M837.5 112.5L887.5 112.5" stroke-width="4.17" stroke="rgba(88, 164, 176, 1)"></path><path d="M833.33 112.5 a4.17 4.17 0 1 0 8.34 0 a4.17 4.17 0 1 0 -8.34 0zM883.33 112.5 a4.17 4.17 0 1 0 8.34 0 a4.17 4.17 0 1 0 -8.34 0z" fill="rgba(88, 164, 176, 1)"></path><path d="M912.5 387.5L862.5 387.5" stroke-width="4.17" stroke="rgba(88, 164, 176, 1)"></path><path d="M908.33 387.5 a4.17 4.17 0 1 0 8.34 0 a4.17 4.17 0 1 0 -8.34 0zM858.33 387.5 a4.17 4.17 0 1 0 8.34 0 a4.17 4.17 0 1 0 -8.34 0z" fill="rgba(88, 164, 176, 1)"></path><path d="M1462.5 487.5L1487.5 462.5L1487.5 437.5" stroke-width="4.17" stroke="rgba(88, 164, 176, 1)"></path><path d="M1458.33 487.5 a4.17 4.17 0 1 0 8.34 0 a4.17 4.17 0 1 0 -8.34 0zM1483.33 437.5 a4.17 4.17 0 1 0 8.34 0 a4.17 4.17 0 1 0 -8.34 0z" fill="rgba(88, 164, 176, 1)"></path><path d="M1312.5 612.5L1337.5 612.5L1362.5 587.5" stroke-width="4.17" stroke="rgba(88, 164, 176, 1)"></path><path d="M1308.33 612.5 a4.17 4.17 0 1 0 8.34 0 a4.17 4.17 0 1 0 -8.34 0zM1358.33 587.5 a4.17 4.17 0 1 0 8.34 0 a4.17 4.17 0 1 0 -8.34 0z" fill="rgba(88, 164, 176, 1)"></path><path d="M362.5 587.5L412.5 587.5" stroke-width="4.17" stroke="rgba(88, 164, 176, 1)"></path><path d="M358.33 587.5 a4.17 4.17 0 1 0 8.34 0 a4.17 4.17 0 1 0 -8.34 0zM408.33 587.5 a4.17 4.17 0 1 0 8.34 0 a4.17 4.17 0 1 0 -8.34 0z" fill="rgba(88, 164, 176, 1)"></path><path d="M1612.5 312.5L1562.5 312.5" stroke-width="4.17" stroke="rgba(88, 164, 176, 1)"></path><path d="M1608.33 312.5 a4.17 4.17 0 1 0 8.34 0 a4.17 4.17 0 1 0 -8.34 0zM1558.33 312.5 a4.17 4.17 0 1 0 8.34 0 a4.17 4.17 0 1 0 -8.34 0z" fill="rgba(88, 164, 176, 1)"></path><path d="M887.5 537.5L862.5 512.5L837.5 512.5" stroke-width="4.17" stroke="rgba(88, 164, 176, 1)"></path><path d="M883.33 537.5 a4.17 4.17 0 1 0 8.34 0 a4.17 4.17 0 1 0 -8.34 0zM833.33 512.5 a4.17 4.17 0 1 0 8.34 0 a4.17 4.17 0 1 0 -8.34 0z" fill="rgba(88, 164, 176, 1)"></path><path d="M937.5 237.5L1012.5 237.5" stroke-width="4.17" stroke="rgba(88, 164, 176, 1)"></path><path d="M933.33 237.5 a4.17 4.17 0 1 0 8.34 0 a4.17 4.17 0 1 0 -8.34 0zM1008.33 237.5 a4.17 4.17 0 1 0 8.34 0 a4.17 4.17 0 1 0 -8.34 0z" fill="rgba(88, 164, 176, 1)"></path><path d="M37.5 412.5L37.5 362.5" stroke-width="4.17" stroke="rgba(88, 164, 176, 1)"></path><path d="M33.33 412.5 a4.17 4.17 0 1 0 8.34 0 a4.17 4.17 0 1 0 -8.34 0zM33.33 362.5 a4.17 4.17 0 1 0 8.34 0 a4.17 4.17 0 1 0 -8.34 0z" fill="rgba(88, 164, 176, 1)"></path><path d="M462.5 287.5L512.5 287.5" stroke-width="4.17" stroke="rgba(88, 164, 176, 1)"></path><path d="M458.33 287.5 a4.17 4.17 0 1 0 8.34 0 a4.17 4.17 0 1 0 -8.34 0zM508.33 287.5 a4.17 4.17 0 1 0 8.34 0 a4.17 4.17 0 1 0 -8.34 0z" fill="rgba(88, 164, 176, 1)"></path><path d="M687.5 387.5L737.5 387.5" stroke-width="4.17" stroke="rgba(88, 164, 176, 1)"></path><path d="M683.33 387.5 a4.17 4.17 0 1 0 8.34 0 a4.17 4.17 0 1 0 -8.34 0zM733.33 387.5 a4.17 4.17 0 1 0 8.34 0 a4.17 4.17 0 1 0 -8.34 0z" fill="rgba(88, 164, 176, 1)"></path><path d="M112.5 437.5L112.5 512.5" stroke-width="4.17" stroke="rgba(88, 164, 176, 1)"></path><path d="M108.33 437.5 a4.17 4.17 0 1 0 8.34 0 a4.17 4.17 0 1 0 -8.34 0zM108.33 512.5 a4.17 4.17 0 1 0 8.34 0 a4.17 4.17 0 1 0 -8.34 0z" fill="rgba(88, 164, 176, 1)"></path><path d="M937.5 187.5L912.5 187.5L862.5 137.5" stroke-width="4.17" stroke="rgba(88, 164, 176, 1)"></path><path d="M933.33 187.5 a4.17 4.17 0 1 0 8.34 0 a4.17 4.17 0 1 0 -8.34 0zM858.33 137.5 a4.17 4.17 0 1 0 8.34 0 a4.17 4.17 0 1 0 -8.34 0z" fill="rgba(88, 164, 176, 1)"></path><path d="M1712.5 512.5L1712.5 462.5" stroke-width="4.17" stroke="rgba(88, 164, 176, 1)"></path><path d="M1708.33 512.5 a4.17 4.17 0 1 0 8.34 0 a4.17 4.17 0 1 0 -8.34 0zM1708.33 462.5 a4.17 4.17 0 1 0 8.34 0 a4.17 4.17 0 1 0 -8.34 0z" fill="rgba(88, 164, 176, 1)"></path><path d="M1662.5 387.5L1662.5 337.5" stroke-width="4.17" stroke="rgba(88, 164, 176, 1)"></path><path d="M1658.33 387.5 a4.17 4.17 0 1 0 8.34 0 a4.17 4.17 0 1 0 -8.34 0zM1658.33 337.5 a4.17 4.17 0 1 0 8.34 0 a4.17 4.17 0 1 0 -8.34 0z" fill="rgba(88, 164, 176, 1)"></path><path d="M162.5 437.5L162.5 512.5" stroke-width="4.17" stroke="rgba(88, 164, 176, 1)"></path><path d="M158.33 437.5 a4.17 4.17 0 1 0 8.34 0 a4.17 4.17 0 1 0 -8.34 0zM158.33 512.5 a4.17 4.17 0 1 0 8.34 0 a4.17 4.17 0 1 0 -8.34 0z" fill="rgba(88, 164, 176, 1)"></path><path d="M237.5 187.5L212.5 212.5L137.5 212.5" stroke-width="4.17" stroke="rgba(88, 164, 176, 1)"></path><path d="M233.33 187.5 a4.17 4.17 0 1 0 8.34 0 a4.17 4.17 0 1 0 -8.34 0zM133.33 212.5 a4.17 4.17 0 1 0 8.34 0 a4.17 4.17 0 1 0 -8.34 0z" fill="rgba(88, 164, 176, 1)"></path><path d="M587.5 237.5L537.5 237.5" stroke-width="4.17" stroke="rgba(88, 164, 176, 1)"></path><path d="M583.33 237.5 a4.17 4.17 0 1 0 8.34 0 a4.17 4.17 0 1 0 -8.34 0zM533.33 237.5 a4.17 4.17 0 1 0 8.34 0 a4.17 4.17 0 1 0 -8.34 0z" fill="rgba(88, 164, 176, 1)"></path><path d="M462.5 312.5L512.5 312.5" stroke-width="4.17" stroke="rgba(88, 164, 176, 1)"></path><path d="M458.33 312.5 a4.17 4.17 0 1 0 8.34 0 a4.17 4.17 0 1 0 -8.34 0zM508.33 312.5 a4.17 4.17 0 1 0 8.34 0 a4.17 4.17 0 1 0 -8.34 0z" fill="rgba(88, 164, 176, 1)"></path><path d="M187.5 287.5L237.5 287.5" stroke-width="4.17" stroke="rgba(88, 164, 176, 1)"></path><path d="M183.33 287.5 a4.17 4.17 0 1 0 8.34 0 a4.17 4.17 0 1 0 -8.34 0zM233.33 287.5 a4.17 4.17 0 1 0 8.34 0 a4.17 4.17 0 1 0 -8.34 0z" fill="rgba(88, 164, 176, 1)"></path><path d="M1212.5 62.5L1237.5 37.5L1262.5 37.5" stroke-width="4.17" stroke="rgba(88, 164, 176, 1)"></path><path d="M1208.33 62.5 a4.17 4.17 0 1 0 8.34 0 a4.17 4.17 0 1 0 -8.34 0zM1258.33 37.5 a4.17 4.17 0 1 0 8.34 0 a4.17 4.17 0 1 0 -8.34 0z" fill="rgba(88, 164, 176, 1)"></path></g></g><defs><mask id="SvgjsMask1028"><rect width="1850" height="630" fill="#ffffff"></rect></mask></defs></svg>